# xmcd
# 
# Track frame offsets:
#     150
#     19036
#     35447
#     54744
#     76519
#     94310
#     105660
#     135146
#     152823
#     174655
#     192064
#     217094
# 
# Disc length: 3228
# 
# Revision: 2
# Processed by: cddbd v1.5.2PL0 Copyright (c) Steve Scherf et al.
# Submitted via: fre:ac v1.0.27
# 
DISCID=930c9a0c
DTITLE=玉置浩二 - LIVE!! 「今日というこの日を生きていこう」
DYEAR=2005
DGENRE=J-Pop
TTITLE0=古今東西
TTITLE1=スイスイ
TTITLE2=しあわせのランプ
TTITLE3=明かりの灯るところへ
TTITLE4=甘んじて受け入れよう
TTITLE5=凡人
TTITLE6=JUNK LAND
TTITLE7=田園
TTITLE8=夏の終わりのハーモニー
TTITLE9=じれったい
TTITLE10=悲しみにさよなら
TTITLE11=MR.LONELY
EXTD=
EXTT0=
EXTT1=
EXTT2=
EXTT3=
EXTT4=
EXTT5=
EXTT6=
EXTT7=
EXTT8=
EXTT9=
EXTT10=
EXTT11=
PLAYORDER=
